<?xml version="1.0" encoding="UTF-8" standalone="no"?>
<svg xmlns="http://www.w3.org/2000/svg" width="200" height="200" viewBox="0 0 200 200">
  <!-- Tło -->
  <circle cx="100" cy="100" r="90" fill="#3498db" />
  <circle cx="100" cy="100" r="75" fill="#2980b9" />
  
  <!-- Wzór wielkości czcionki -->
  <path d="M70,130 L130,70" stroke="white" stroke-width="5" stroke-linecap="round" />
  <circle cx="70" cy="130" r="8" fill="white" />
  <circle cx="130" cy="70" r="8" fill="white" />
  
  <!-- Symbole dostępności -->
  <path d="M60,90 C60,70 80,70 90,80 C100,90 100,110 90,120 C80,130 60,130 60,110 Z" fill="#ecf0f1" opacity="0.8" />
  <path d="M140,90 C140,70 120,70 110,80 C100,90 100,110 110,120 C120,130 140,130 140,110 Z" fill="#ecf0f1" opacity="0.8" />
  
  <!-- Tekst -->
  <text x="100" y="160" font-family="Arial, sans-serif" font-size="24" font-weight="bold" text-anchor="middle" fill="white">NORMICA</text>
</svg>
